<?xml version="1.0" encoding="UTF-8"?>
<svg width="100pt" height="100pt" version="1.1" viewBox="0 0 100 100" xmlns="http://www.w3.org/2000/svg">
 <path d="m14.641 58.777c0.37109 0.32031 0.51172 0.83594 0.34766 1.3008l-4.0508 11.434c-0.11719 0.32812-0.082031 0.6875 0.089844 0.98828 0.17578 0.30078 0.47266 0.51172 0.8125 0.57422l11.926 2.2109v-0.003906c0.48438 0.089844 0.86328 0.46875 0.94922 0.95312l2.2109 11.926c0.0625 0.33984 0.27344 0.63672 0.57422 0.8125 0.30078 0.17188 0.66016 0.20703 0.98828 0.089844l11.434-4.0508c0.46484-0.16406 0.98047-0.023438 1.2969 0.34766l7.8789 9.2227v0.003907c0.22656 0.26172 0.55469 0.41406 0.90234 0.41406s0.67578-0.15234 0.90234-0.41406l7.8789-9.2227-0.003906-0.003906c0.32031-0.37109 0.83594-0.51172 1.3008-0.34766l11.434 4.0508c0.32422 0.11719 0.6875 0.082031 0.98828-0.089844 0.30078-0.17578 0.51172-0.47266 0.57422-0.8125l2.207-11.926c0.089844-0.48438 0.46875-0.86328 0.95312-0.95312l11.926-2.207c0.33984-0.0625 0.63672-0.27344 0.8125-0.57422 0.17188-0.30078 0.20312-0.66016 0.089844-0.98828l-4.0508-11.434c-0.16406-0.46484-0.023438-0.98047 0.34766-1.3008l9.2227-7.8789v0.003906c0.26562-0.22656 0.41797-0.55469 0.41797-0.90234s-0.15234-0.67578-0.41797-0.90234l-9.2227-7.8789v0.003906c-0.37109-0.32031-0.51172-0.83594-0.34766-1.3008l4.0508-11.434c0.11328-0.32812 0.082031-0.6875-0.089844-0.98828-0.17578-0.30078-0.47266-0.51172-0.8125-0.57422l-11.926-2.207c-0.48438-0.089844-0.86328-0.46875-0.95312-0.95312l-2.207-11.926c-0.0625-0.33984-0.27344-0.63672-0.57422-0.8125-0.30078-0.17188-0.66406-0.20703-0.98828-0.089844l-11.434 4.0508c-0.46484 0.16406-0.98047 0.023438-1.3008-0.34766l-7.8789-9.2227 0.003906-0.003907c-0.22656-0.26172-0.55469-0.41406-0.90234-0.41406s-0.67578 0.15234-0.90234 0.41406l-7.8789 9.2227v0.003906c-0.31641 0.37109-0.83203 0.51172-1.2969 0.34766l-11.434-4.0508c-0.32812-0.11719-0.6875-0.082031-0.98828 0.089844-0.30078 0.17578-0.51172 0.47266-0.57422 0.8125l-2.2109 11.926c-0.085938 0.48438-0.46484 0.86328-0.94922 0.95312l-11.926 2.207c-0.33984 0.0625-0.63672 0.27344-0.8125 0.57422-0.17188 0.30078-0.20703 0.66016-0.089844 0.98828l4.0508 11.434c0.16406 0.46484 0.023438 0.98047-0.34766 1.3008l-9.2227 7.8789-0.003907-0.003906c-0.26172 0.22656-0.41406 0.55469-0.41406 0.90234s0.15234 0.67578 0.41406 0.90234zm40.246-31.328c1.5859 0 3.0156 0.95312 3.625 2.418 0.60547 1.4648 0.26953 3.1523-0.85156 4.2734-1.1211 1.125-2.8086 1.457-4.2734 0.85156-1.4648-0.60547-2.4219-2.0352-2.4219-3.625 0-1.0391 0.41406-2.0352 1.1484-2.7695 0.73438-0.73828 1.7344-1.1484 2.7734-1.1484zm-7.9766 11.953c3.7109-1.793 9.4492-0.25 8.4492 3.4883l-5.4141 20.199c-1.8945 7.0664 3.3125 4.75 5.6445 3.7266-1.4258 2.1445-3.3984 3.8672-5.7188 4.9883-3.7109 1.793-9.4492 0.25-8.4492-3.4883l5.4141-20.199c1.8945-7.0664-3.3125-4.75-5.6445-3.7266v0.003906c1.4258-2.1445 3.4023-3.8711 5.7188-4.9922z"/>
</svg>
